Coordinates
version=1
nRows=13
nColumns=40
inDegrees=yes

Units are S.I. units (second, meters, Newtons, ...)
Angles are in degrees.

endheader
time	pelvis_tilt	pelvis_list	pelvis_rotation	pelvis_tx	pelvis_ty	pelvis_tz	hip_flexion_r	hip_adduction_r	hip_rotation_r	knee_angle_r	knee_angle_r_beta	ankle_angle_r	subtalar_angle_r	mtp_angle_r	hip_flexion_l	hip_adduction_l	hip_rotation_l	knee_angle_l	knee_angle_l_beta	ankle_angle_l	subtalar_angle_l	mtp_angle_l	lumbar_extension	lumbar_bending	lumbar_rotation	arm_flex_r	arm_add_r	arm_rot_r	elbow_flex_r	pro_sup_r	wrist_flex_r	wrist_dev_r	arm_flex_l	arm_add_l	arm_rot_l	elbow_flex_l	pro_sup_l	wrist_flex_l	wrist_dev_l
     58.81214286	     -0.47632995	     -4.99231149	      6.39098747	      0.96623546	      0.91169279	      0.52821808	     14.41352564	      6.00018143	     -9.07303910	     30.98043442	     30.98043442	     18.42443105	    -13.71365768	      0.04760674	     29.99136692	    -12.62451027	      2.78005104	     62.22402887	     62.22402887	     16.32273447	    -19.60318074	     23.33831284	    -11.98035807	      5.24676406	      0.78481291	     16.52430022	    -15.27938146	    -13.32218794	     31.17318049	     46.62245873	      0.00000000	      0.00000000	     11.74531250	     -8.77088336	     -3.89239012	     32.01813731	     46.73112955	      0.00000000	      0.00000000
     58.83178571	     -0.43877467	     -4.83203559	      6.94971754	      0.96466551	      0.91083235	      0.52851305	     14.25078692	      5.88244290	     -9.24955856	     31.35750885	     31.35750885	     18.85751375	    -14.17377357	      0.12004906	     30.78115970	    -12.11342456	      2.75786094	     59.79906441	     59.79906441	     16.78950377	    -19.58726808	     23.18193645	    -12.15542548	      4.88969348	      0.65061996	     19.02013157	    -15.28173265	    -13.45261544	     32.98640033	     46.56984282	      0.00000000	      0.00000000	      9.08558404	     -8.46390997	     -3.68416857	     29.93341602	     46.65154517	      0.00000000	      0.00000000
     58.85142857	     -0.49238992	     -4.69058442	      7.49657531	      0.96305735	      0.91045175	      0.52858532	     14.00614730	      5.76418022	     -9.49828122	     31.39306741	     31.39306741	     19.20340237	    -14.43282738	      0.26311313	     31.45659278	    -11.53129561	      2.82431247	     56.95754159	     56.95754159	     16.93443076	    -19.54931049	     22.88937325	    -12.22266259	      4.55509367	      0.59117098	     21.46300248	    -15.34513439	    -13.50638333	     34.90949400	     46.50729719	      0.00000000	      0.00000000	      6.54128699	     -8.15869863	     -3.46571631	     27.80837787	     46.57115461	      0.00000000	      0.00000000
     58.87107143	     -0.67534972	     -4.59650677	      8.03299031	      0.96140331	      0.91041350	      0.52839067	     13.78239924	      5.63995167	     -9.87293627	     31.20995074	     31.20995074	     19.60368412	    -14.36240604	      0.80389449	     32.05179758	    -10.91577285	      2.99251195	     53.73368124	     53.73368124	     16.34054940	    -19.49733109	     21.05303387	    -12.16311815	      4.26184382	      1.04963848	     23.04438160	    -15.91746694	    -13.09471770	     38.39419542	     46.32717856	      0.00000000	      0.00000000	      4.67724790	     -7.71457209	     -2.99143832	     24.82311595	     46.43813567	      0.00000000	      0.00000000
     58.89071429	     -0.86892902	     -4.38746425	      8.51490706	      0.95981077	      0.91113214	      0.52794586	     13.34013024	      5.40976880	    -10.17789897	     30.63947894	     30.63947894	     19.71533881	    -14.27925266	      0.88984752	     32.39775445	    -10.07500383	      3.30646970	     50.26267352	     50.26267352	     16.04358708	    -19.38560209	     20.90209694	    -12.09651342	      3.82787842	      1.21132985	     25.39931107	    -16.14368901	    -13.10805905	     40.28610102	     46.26518646	      0.00000000	      0.00000000	      2.12714429	     -7.52514623	     -2.89826013	     23.55671196	     46.37008027	      0.00000000	      0.00000000
     58.91035714	     -1.19069294	     -4.26719327	      8.99041048	      0.95824081	      0.91203450	      0.52727255	     12.91496763	      5.21559453	    -10.64419922	     29.82480423	     29.82480423	     19.66247705	    -13.93521734	      0.67674233	     32.63804480	     -9.31872185	      3.70059064	     46.46030251	     46.46030251	     14.51936192	    -19.22412506	     17.69826538	    -11.94398630	      3.48883744	      1.48677057	     26.94917051	    -16.78908060	    -12.35839228	     44.38293219	     46.05118227	      0.00000000	      0.00000000	     -0.47307872	     -7.37054907	     -2.45098210	     22.93244882	     46.19485182	      0.00000000	      0.00000000
     58.93000000	     -1.59117891	     -4.03639605	      9.41734251	      0.95672891	      0.91343712	      0.52632246	     12.41047977	      4.92573465	    -10.98744698	     28.74968285	     28.74968285	     19.57293552	    -13.58339771	      0.80191587	     32.77689275	     -8.32732308	      4.36979554	     42.69077896	     42.69077896	     13.95811688	    -18.88916235	     17.68850667	    -11.63493758	      2.99074389	      1.86959716	     29.20135453	    -17.23801701	    -12.44173909	     46.02408811	     46.00547909	      0.00000000	      0.00000000	     -2.73945945	     -7.23898597	     -2.39665350	     22.08879699	     46.13718784	      0.00000000	      0.00000000
     58.94964286	     -1.91718029	     -3.93864381	      9.84612958	      0.95544502	      0.91492812	      0.52520150	     11.71470900	      4.73668562	    -11.60971094	     27.46657269	     27.46657269	     19.26234639	    -12.86142734	      0.05891705	     32.56605381	     -7.67590881	      4.82859009	     38.57336547	     38.57336547	     11.53384372	    -18.36956235	     12.49181819	    -11.49921138	      2.70985829	      2.05724226	     30.72101245	    -17.84824280	    -11.89572681	     50.52187200	     45.80568198	      0.00000000	      0.00000000	     -5.55913907	     -7.28214147	     -1.85429240	     22.73393239	     45.92765514	      0.00000000	      0.00000000
     58.96928571	     -2.56517788	     -3.94100281	     10.21630509	      0.95388509	      0.91591233	      0.52395438	     11.57412947	      4.63757911	    -11.94184313	     26.49693551	     26.49693551	     19.10732784	    -12.61263892	      0.22138064	     32.93799723	     -7.07687676	      5.40604418	     35.23569011	     35.23569011	     11.27279199	    -16.90479871	     12.77489601	    -10.88125001	      2.45387436	      2.73294733	     33.03532616	    -18.82162595	    -12.12166848	     51.71093421	     45.78634842	      0.00000000	      0.00000000	     -7.43452641	     -7.18557602	     -1.85058409	     22.10412937	     45.88970591	      0.00000000	      0.00000000
     58.98892857	     -2.70510215	     -3.72654592	     10.61706687	      0.95313977	      0.91799948	      0.52234690	     10.30702016	      4.37497153	    -12.72141044	     24.63499513	     24.63499513	     18.67902416	    -11.37763936	     -0.65283888	     32.12891946	     -6.48899357	      5.66359008	     31.20072288	     31.20072288	      9.23627499	    -15.66344464	      8.52560278	    -10.96689708	      2.07530714	      2.62428131	     34.43895396	    -18.90286835	    -11.70429222	     56.57249181	     45.59617906	      0.00000000	      0.00000000	    -10.21855793	     -7.34629261	     -1.22501311	     23.51890629	     45.67047884	      0.00000000	      0.00000000
     59.00857143	     -3.09762750	     -3.70072376	     10.97394244	      0.95216863	      0.91917723	      0.52068671	      9.61699344	      4.29470124	    -13.22885745	     23.23820915	     23.23820915	     18.39227116	    -10.65599114	     -1.01995197	     31.90546902	     -6.13945167	      5.72445295	     28.04251846	     28.04251846	      8.51520578	    -13.58033753	      7.17609173	    -10.67093013	      1.84697675	      2.87783557	     36.36760170	    -19.34964567	    -11.68748422	     59.19050803	     45.51556709	      0.00000000	      0.00000000	    -12.21925426	     -7.42860960	     -0.35518977	     23.87991321	     45.46387264	      0.00000000	      0.00000000
     59.02821429	     -3.46557960	     -3.67198486	     11.30389974	      0.95127289	      0.92008280	      0.51884062	      8.97058754	      4.22270999	    -13.64489384	     21.99748477	     21.99748477	     18.28087348	    -10.00415510	     -0.92223400	     31.68146473	     -5.81759826	      5.63804543	     25.37271395	     25.37271395	      8.30964529	    -11.47378144	      7.26127175	    -10.38085466	      1.61834316	      3.00330206	     38.56784501	    -19.59728630	    -11.77097319	     60.95635282	     45.46940668	      0.00000000	      0.00000000	    -13.82237586	     -7.37769928	     -0.24224662	     23.64449695	     45.41339817	      0.00000000	      0.00000000
     59.04785714	     -3.81842174	     -3.73381995	     11.62196770	      0.95045454	      0.92046746	      0.51680972	      8.42029515	      4.19781050	    -14.17301521	     20.96340721	     20.96340721	     18.25473716	     -9.24176210	     -1.00754008	     31.52660813	     -5.64291131	      5.29085290	     23.20177753	     23.20177753	      7.98216520	     -9.44789154	      7.00027623	    -10.13919580	      1.53065418	      3.05373900	     40.57826269	    -19.77986459	    -11.73718275	     63.26574068	     45.40055054	      0.00000000	      0.00000000	    -15.35817788	     -7.30108652	     -0.16318724	     24.00029343	     45.36693642	      0.00000000	      0.00000000
